<?xml version="1.0" encoding="utf-8"?>
<!-- Generator: Adobe Illustrator 22.1.0, SVG Export Plug-In . SVG Version: 6.00 Build 0)  -->
<svg version="1.1" id="Capa_1" xmlns="http://www.w3.org/2000/svg" xmlns:xlink="http://www.w3.org/1999/xlink" x="0px" y="0px"
	 viewBox="0 0 471.4 471.4" style="enable-background:new 0 0 471.4 471.4;" xml:space="preserve">
<g>
	<g>
		<path d="M468.8,355.2c-1.7-1.7-3.9-2.6-6.6-2.6H188.1c-2.7,0-4.9,0.9-6.6,2.6c-1.7,1.7-2.6,3.9-2.6,6.6V380c0,2.7,0.9,4.9,2.6,6.6
			c1.7,1.7,3.9,2.6,6.6,2.6h274.1c2.7,0,4.9-0.9,6.6-2.6c1.7-1.7,2.6-3.9,2.6-6.6v-18.3C471.4,359.1,470.5,356.9,468.8,355.2z"/>
		<path d="M30.3,85.1c-1.9-1.9-4.1-2.9-6.6-2.9s-4.7,1-6.6,2.9L2.9,99.4c-1.9,1.9-2.9,4.1-2.9,6.6c0,2.5,0.9,4.7,2.9,6.6
			l112.2,112.2L2.9,336.9C0.9,338.8,0,341,0,343.5c0,2.5,0.9,4.7,2.9,6.6l14.3,14.3c1.9,1.9,4.1,2.9,6.6,2.9s4.7-1,6.6-2.9l133-133
			c1.9-1.9,2.9-4.1,2.9-6.6c0-2.5-0.9-4.7-2.9-6.6L30.3,85.1z"/>
	</g>
</g>
</svg>
